<svg width="309" height="95" viewBox="0 0 309 95" fill="none" xmlns="http://www.w3.org/2000/svg">
<path d="M0.6 93L42.72 48.67C44.8867 46.33 46.75 44.0767 48.31 41.91C49.87 39.7433 51.04 37.5767 51.82 35.41C52.6 33.2433 52.99 30.9467 52.99 28.52C52.99 26.7867 52.6433 25.0967 51.95 23.45C51.3433 21.7167 50.3467 20.1567 48.96 18.77C47.66 17.3833 46.0567 16.3 44.15 15.52C42.2433 14.6533 40.0333 14.22 37.52 14.22C34.0533 14.22 31.0633 15.0433 28.55 16.69C26.0367 18.25 24.0867 20.5467 22.7 23.58C21.4 26.6133 20.75 30.1233 20.75 34.11H5.54C5.54 27.61 6.75333 21.8467 9.18 16.82C11.6933 11.7067 15.3333 7.72 20.1 4.86C24.9533 1.91333 30.8467 0.439998 37.78 0.439998C43.0667 0.439998 47.66 1.30666 51.56 3.04C55.46 4.68666 58.6667 6.85333 61.18 9.54C63.78 12.2267 65.6867 15.1733 66.9 18.38C68.2 21.5867 68.85 24.7067 68.85 27.74C68.85 32.5067 67.68 37.1 65.34 41.52C63.0867 45.94 60.0967 49.8833 56.37 53.35L30.5 78.7H70.02V93H0.6ZM96.737 47.5C96.737 52.3533 97.2137 56.8167 98.167 60.89C99.1204 64.9633 100.464 68.4733 102.197 71.42C104.017 74.3667 106.184 76.6633 108.697 78.31C111.21 79.87 113.984 80.65 117.017 80.65C120.224 80.65 123.04 79.87 125.467 78.31C127.98 76.6633 130.104 74.3667 131.837 71.42C133.657 68.4733 135.044 64.9633 135.997 60.89C136.95 56.8167 137.427 52.3533 137.427 47.5C137.427 42.6467 136.95 38.1833 135.997 34.11C135.044 30.0367 133.657 26.5267 131.837 23.58C130.104 20.6333 127.98 18.38 125.467 16.82C123.04 15.1733 120.224 14.35 117.017 14.35C113.984 14.35 111.21 15.1733 108.697 16.82C106.184 18.38 104.017 20.6333 102.197 23.58C100.464 26.5267 99.1204 30.0367 98.167 34.11C97.2137 38.1833 96.737 42.6467 96.737 47.5ZM81.657 47.5C81.657 38.0533 83.1304 29.82 86.077 22.8C89.1104 15.78 93.2704 10.32 98.557 6.42C103.93 2.52 110.084 0.569997 117.017 0.569997C124.124 0.569997 130.32 2.52 135.607 6.42C140.98 10.32 145.14 15.78 148.087 22.8C151.034 29.82 152.507 38.0533 152.507 47.5C152.507 56.9467 151.034 65.18 148.087 72.2C145.14 79.22 140.98 84.68 135.607 88.58C130.32 92.48 124.124 94.43 117.017 94.43C110.084 94.43 103.93 92.48 98.557 88.58C93.2704 84.68 89.1104 79.22 86.077 72.2C83.1304 65.18 81.657 56.9467 81.657 47.5ZM160.307 93L202.427 48.67C204.594 46.33 206.457 44.0767 208.017 41.91C209.577 39.7433 210.747 37.5767 211.527 35.41C212.307 33.2433 212.697 30.9467 212.697 28.52C212.697 26.7867 212.35 25.0967 211.657 23.45C211.05 21.7167 210.054 20.1567 208.667 18.77C207.367 17.3833 205.764 16.3 203.857 15.52C201.95 14.6533 199.74 14.22 197.227 14.22C193.76 14.22 190.77 15.0433 188.257 16.69C185.744 18.25 183.794 20.5467 182.407 23.58C181.107 26.6133 180.457 30.1233 180.457 34.11H165.247C165.247 27.61 166.46 21.8467 168.887 16.82C171.4 11.7067 175.04 7.72 179.807 4.86C184.66 1.91333 190.554 0.439998 197.487 0.439998C202.774 0.439998 207.367 1.30666 211.267 3.04C215.167 4.68666 218.374 6.85333 220.887 9.54C223.487 12.2267 225.394 15.1733 226.607 18.38C227.907 21.5867 228.557 24.7067 228.557 27.74C228.557 32.5067 227.387 37.1 225.047 41.52C222.794 45.94 219.804 49.8833 216.077 53.35L190.207 78.7H229.727V93H160.307ZM308.444 63.36C308.444 68.6467 307.534 73.24 305.714 77.14C303.894 81.04 301.381 84.29 298.174 86.89C294.967 89.4033 291.327 91.31 287.254 92.61C283.267 93.8233 279.064 94.43 274.644 94.43C269.097 94.43 264.201 93.6933 259.954 92.22C255.707 90.7467 252.024 88.7967 248.904 86.37C245.784 83.8567 243.054 81.17 240.714 78.31L249.684 67.26C251.504 69.6 253.627 71.7667 256.054 73.76C258.567 75.6667 261.254 77.2267 264.114 78.44C266.974 79.5667 269.834 80.13 272.694 80.13C276.854 80.13 280.364 79.4367 283.224 78.05C286.084 76.6633 288.251 74.6267 289.724 71.94C291.284 69.2533 292.064 66.09 292.064 62.45C292.064 58.7233 291.197 55.56 289.464 52.96C287.731 50.36 285.391 48.3667 282.444 46.98C279.497 45.5933 276.247 44.9 272.694 44.9C270.094 44.9 267.494 45.1167 264.894 45.55C262.381 45.8967 259.781 46.59 257.094 47.63C254.494 48.67 251.634 50.1433 248.514 52.05L260.864 1.99999H307.534V15.52H272.434L266.714 36.32C268.967 35.1933 271.307 34.37 273.734 33.85C276.161 33.33 278.631 33.07 281.144 33.07C286.171 33.07 290.764 34.3267 294.924 36.84C299.084 39.3533 302.377 42.8633 304.804 47.37C307.231 51.8767 308.444 57.2067 308.444 63.36Z" fill="white"/>
</svg>
