<svg width="794" height="123" viewBox="0 0 794 123" fill="none" xmlns="http://www.w3.org/2000/svg">
<path d="M106.363 122.318V2.659H93.0678V55.6701H39.8862V69.4769H93.0678V122.318H106.363Z" fill="white"/>
<path d="M13.2954 122.318V69.4769V55.6701V2.659H0V122.318H13.2954Z" fill="white"/>
<path d="M571.702 120.988V1.32935H558.407V54.3405H505.225V68.1473H558.407V120.988H571.702Z" fill="white"/>
<path d="M478.634 120.988V68.1473V54.3405V1.32935H465.339V120.988H478.634Z" fill="white"/>
<path d="M174.967 2.659L119.658 122.977H134.634L148.419 92.855L154.886 79.2405L174.967 35.1636L195.389 79.2405L201.516 92.855L215.47 122.977H230.617L174.967 2.659Z" fill="white"/>
<path d="M343.809 104.491C331.896 116.404 316.239 122.53 300.583 122.53C266.887 122.53 239.318 95.1312 239.318 61.2652C239.318 27.229 266.547 0 300.583 0C316.239 0 331.896 5.95633 343.809 17.869L333.938 27.7395C323.898 17.6988 312.495 13.4443 301.604 13.4443C276.077 13.4443 252.762 36.7591 252.762 62.2863C252.762 87.6433 275.736 108.576 300.583 108.576C312.666 108.576 324.748 103.81 333.938 94.6207L343.809 104.491Z" fill="white"/>
<path d="M450.703 2.659L379.738 61.882L451.044 122.126H429.941L358.976 61.882L429.601 2.659H450.703Z" fill="white"/>
<path d="M598.611 1.32935V70.0825C598.781 95.4395 618.012 108.203 637.242 108.203C656.303 108.203 675.533 95.4395 675.703 70.0825V1.32935H689.318V70.2527C689.148 100.885 663.45 122.668 636.562 122.668C608.141 122.668 584.997 98.3326 584.997 70.2527V1.32935H598.611Z" fill="white"/>
<path d="M794 88.7707C794 77.8791 788.895 68.3489 780.896 62.3926C788.895 56.2661 794 46.7359 794 36.0145C794 17.6349 779.194 2.659 760.815 2.659H704.655V36.0145L718.269 35.8443V16.2735H760.815C771.706 16.2735 780.386 25.1229 780.386 36.0145C780.386 46.7359 771.706 55.4151 760.815 55.4151V69.1998C771.706 69.1998 780.386 77.8791 780.386 88.7707C780.386 99.4921 771.706 108.341 760.815 108.341H718.269H704.655V121.956H760.815C779.194 121.956 794 106.98 794 88.7707Z" fill="white"/>
</svg>
