<svg xmlns="http://www.w3.org/2000/svg" xmlns:xlink="http://www.w3.org/1999/xlink" id="svg" version="1.1" width="400" height="304.86944248412135" viewBox="0, 0, 400,304.86944248412135 undefined"><g id="svgg"><path id="path0" d="M126.758 93.199 C 113.863 106.130,103.345 116.803,103.385 116.916 C 103.505 117.255,150.194 164.008,150.412 164.008 C 150.925 164.008,166.549 147.994,166.549 147.468 C 166.549 147.110,164.934 145.303,162.165 142.565 L 157.782 138.229 154.210 141.803 C 152.246 143.769,150.550 145.378,150.441 145.378 C 150.226 145.378,122.135 117.250,122.016 116.915 C 121.913 116.628,150.203 88.317,150.494 88.416 C 150.728 88.496,161.641 99.338,173.170 110.945 L 179.085 116.900 173.719 122.235 L 168.353 127.569 172.813 132.022 L 177.272 136.475 178.238 135.955 C 178.769 135.669,183.359 131.243,188.436 126.120 L 197.669 116.806 181.409 100.534 C 172.466 91.585,161.921 81.028,157.976 77.074 C 154.030 73.121,150.667 69.841,150.503 69.787 C 150.339 69.732,139.654 80.267,126.758 93.199 M241.568 77.972 L 233.453 86.239 237.945 90.685 C 240.415 93.130,242.569 95.131,242.732 95.131 C 242.894 95.131,244.530 93.606,246.367 91.743 C 248.205 89.880,249.832 88.356,249.982 88.356 C 250.133 88.356,256.664 94.770,264.496 102.610 L 278.736 116.865 264.382 131.234 L 250.028 145.603 235.882 131.352 C 228.102 123.514,221.699 117.001,221.654 116.878 C 221.609 116.756,223.863 114.395,226.664 111.632 C 229.465 108.870,231.757 106.407,231.757 106.161 C 231.757 105.724,223.624 97.359,222.995 97.150 C 222.746 97.067,203.341 115.976,203.030 116.604 C 202.877 116.915,249.597 164.008,250.059 164.008 C 250.165 164.008,260.856 153.401,273.816 140.437 L 297.381 116.866 273.816 93.296 C 260.855 80.332,250.123 69.721,249.967 69.715 C 249.810 69.710,246.031 73.426,241.568 77.972 M78.563 197.389 C 78.350 197.718,78.424 239.039,78.639 239.406 C 78.693 239.498,80.552 239.558,82.770 239.538 L 86.803 239.503 86.875 218.270 L 86.948 197.036 82.870 197.036 C 79.917 197.036,78.728 197.133,78.563 197.389 M283.789 197.488 C 283.691 197.745,283.696 201.432,283.802 205.682 C 284.014 214.237,284.075 213.987,282.171 212.427 C 276.871 208.084,268.245 210.483,264.847 217.245 C 262.550 221.816,262.487 229.588,264.712 233.984 C 268.072 240.625,277.055 242.344,282.004 237.292 C 283.732 235.529,283.980 235.593,283.980 237.800 L 283.980 239.608 288.144 239.564 L 292.308 239.520 292.308 218.349 L 292.308 197.177 288.138 197.099 C 284.474 197.030,283.947 197.077,283.789 197.488 M157.194 197.452 C 157.120 197.526,157.094 198.383,157.136 199.357 C 157.178 200.332,157.217 209.735,157.223 220.254 L 157.234 239.379 161.468 239.379 L 165.702 239.379 165.702 232.463 C 165.702 224.993,165.772 224.700,167.050 226.828 C 167.473 227.533,168.999 229.915,170.440 232.121 C 171.881 234.327,173.455 236.863,173.937 237.756 L 174.814 239.379 179.550 239.379 C 182.156 239.379,184.488 239.456,184.733 239.550 C 185.662 239.907,184.123 237.304,180.688 232.707 C 179.976 231.754,179.203 230.688,178.970 230.338 C 178.737 229.989,178.277 229.371,177.949 228.966 C 176.508 227.189,175.018 224.846,175.018 224.359 C 175.018 223.945,179.642 217.409,180.369 216.796 C 180.764 216.463,183.455 212.624,183.881 211.785 L 184.348 210.868 179.440 210.868 L 174.533 210.868 172.062 214.658 C 170.703 216.743,168.869 219.624,167.986 221.061 C 165.558 225.013,165.702 225.674,165.702 210.609 L 165.702 197.318 161.515 197.318 C 159.212 197.318,157.268 197.378,157.194 197.452 M250.515 197.715 C 247.873 198.866,247.036 202.425,248.910 204.541 C 252.280 208.346,259.505 204.895,257.610 200.387 C 256.523 197.803,253.193 196.549,250.515 197.715 M42.626 219.234 L 42.626 239.238 52.435 239.227 C 62.955 239.215,63.443 239.159,66.476 237.614 C 74.966 233.289,74.157 220.352,65.279 218.474 C 63.555 218.109,63.417 217.773,64.762 217.211 C 69.753 215.126,72.027 210.355,70.270 205.660 C 68.434 200.753,64.998 199.606,51.447 199.379 L 42.625 199.230 42.626 219.234 M189.819 199.606 C 189.713 199.778,189.709 206.733,189.809 215.061 C 189.910 223.390,189.989 232.288,189.985 234.834 L 189.979 239.463 199.647 239.259 C 213.444 238.969,215.983 238.078,218.600 232.604 C 220.997 227.593,218.404 219.902,213.973 218.878 C 210.566 218.091,210.520 218.013,212.773 216.809 C 217.484 214.292,219.332 209.586,217.323 205.221 C 215.798 201.907,213.287 200.459,207.568 199.600 C 204.804 199.184,190.077 199.190,189.819 199.606 M58.574 206.649 C 62.101 208.261,62.562 212.020,59.517 214.343 C 58.072 215.445,53.483 216.133,51.823 215.496 C 51.282 215.288,51.155 207.292,51.677 206.317 C 52.067 205.588,56.745 205.813,58.574 206.649 M206.253 206.808 C 210.630 208.875,209.273 214.561,204.205 215.391 C 202.319 215.700,200.304 215.741,199.365 215.489 C 198.606 215.286,198.339 206.274,199.083 205.973 C 200.047 205.584,204.841 206.142,206.253 206.808 M103.920 210.718 C 89.309 214.252,89.061 236.588,103.599 239.693 C 115.231 242.177,123.653 235.830,123.638 224.591 C 123.624 214.442,114.644 208.124,103.920 210.718 M139.152 210.686 C 132.241 212.290,127.859 218.214,127.881 225.925 C 127.910 236.194,137.366 242.453,148.441 239.531 C 151.206 238.802,151.226 238.770,151.205 235.024 C 151.187 231.942,150.931 231.048,150.339 232.006 C 149.170 233.897,141.572 233.707,139.321 231.730 C 131.904 225.218,140.458 213.447,149.346 217.934 L 151.040 218.789 150.961 215.181 L 150.882 211.574 149.810 211.050 C 148.411 210.367,141.538 210.132,139.152 210.686 M240.222 210.557 C 238.838 210.837,237.350 211.917,235.981 213.637 C 234.321 215.723,233.948 215.610,234.064 213.056 L 234.157 211.009 229.922 211.009 L 225.688 211.009 225.615 225.194 L 225.542 239.379 228.791 239.435 C 230.578 239.466,232.516 239.498,233.098 239.506 L 234.157 239.520 234.298 231.193 L 234.439 222.865 235.310 221.313 C 237.038 218.230,239.200 217.449,243.410 218.384 L 244.194 218.559 244.115 214.502 L 244.037 210.445 242.625 210.400 C 241.849 210.376,240.767 210.446,240.222 210.557 M307.975 210.694 C 300.717 212.826,296.910 220.977,298.824 230.287 C 300.757 239.691,311.060 243.388,317.737 237.074 C 319.483 235.422,319.699 235.581,319.291 238.210 C 318.111 245.816,311.145 248.607,302.684 244.865 C 301.829 244.487,301.082 244.178,301.023 244.178 C 300.965 244.178,300.917 245.699,300.917 247.559 C 300.917 252.075,301.624 252.523,309.245 252.834 C 317.080 253.154,323.339 250.382,325.803 245.502 C 327.623 241.896,327.554 242.610,327.663 226.182 L 327.762 211.150 323.671 211.150 L 319.581 211.150 319.494 212.328 C 319.384 213.815,319.088 213.900,317.855 212.799 C 315.479 210.679,311.160 209.759,307.975 210.694 M344.107 210.720 C 330.364 214.683,330.152 236.407,343.825 239.679 C 348.296 240.749,358.007 239.519,358.362 237.838 C 358.429 237.521,358.520 236.150,358.564 234.792 C 358.653 232.065,358.624 232.028,356.928 232.737 C 351.104 235.170,345.022 234.101,343.099 230.305 C 341.693 227.531,341.262 227.673,351.306 227.605 C 356.119 227.573,360.279 227.541,360.550 227.535 C 361.721 227.507,361.004 219.786,359.559 216.859 C 356.939 211.552,350.330 208.926,344.107 210.720 M250.741 211.078 L 248.412 211.173 248.412 225.245 L 248.412 239.316 252.576 239.438 C 254.866 239.504,256.795 239.516,256.863 239.463 C 257.081 239.294,257.244 214.098,257.038 212.451 L 256.840 210.868 254.955 210.925 C 253.918 210.957,252.022 211.026,250.741 211.078 M350.810 216.988 C 352.055 217.996,352.791 219.241,353.032 220.748 C 353.283 222.319,352.722 222.474,347.106 222.378 L 342.555 222.301 342.476 221.454 C 342.138 217.825,347.978 214.696,350.810 216.988 M111.503 217.594 C 116.689 220.774,115.840 231.692,110.291 233.192 C 105.117 234.591,101.147 230.481,101.751 224.353 C 102.322 218.557,107.369 215.059,111.503 217.594 M279.555 217.099 C 284.036 218.343,285.634 226.318,282.348 231.038 C 279.925 234.519,274.925 234.139,272.838 230.315 C 269.533 224.262,273.963 215.546,279.555 217.099 M316.207 217.889 C 321.418 221.622,319.983 232.540,314.177 233.335 C 309.417 233.988,306.429 229.584,307.418 223.374 C 308.240 218.211,312.738 215.404,316.207 217.889 M60.196 222.970 C 64.849 225.228,63.536 231.747,58.253 232.612 C 56.401 232.916,52.507 232.978,51.823 232.715 C 51.356 232.536,51.127 223.702,51.560 222.574 C 51.862 221.787,58.373 222.085,60.196 222.970 M206.585 222.595 C 211.250 223.980,211.885 229.825,207.599 231.922 C 205.952 232.728,201.236 233.222,199.457 232.776 L 198.730 232.593 198.730 227.565 C 198.730 224.799,198.814 222.451,198.918 222.348 C 199.297 221.968,205.106 222.155,206.585 222.595 " stroke="none" fill="#ffffff" fill-rule="evenodd"/><path id="path1" d="M0.000 152.435 L 0.000 304.869 200.000 304.869 L 400.000 304.869 400.000 152.435 L 400.000 0.000 200.000 0.000 L 0.000 0.000 0.000 152.435 M215.019 67.678 C 222.855 75.558,229.551 82.322,229.899 82.710 C 230.248 83.098,231.126 83.982,231.851 84.675 L 233.170 85.934 241.477 77.658 C 246.045 73.106,249.939 69.434,250.128 69.497 C 250.619 69.661,297.542 116.683,297.458 116.927 C 297.306 117.370,250.361 164.291,250.070 164.291 C 249.899 164.291,246.071 160.618,241.565 156.129 L 233.373 147.968 217.024 164.245 C 208.032 173.197,200.508 180.560,200.305 180.606 C 200.101 180.653,192.529 173.258,183.479 164.174 L 167.025 147.658 165.874 148.988 C 163.749 151.443,150.759 164.291,150.401 164.291 C 150.052 164.291,106.612 120.984,103.996 118.029 C 102.713 116.580,102.676 116.492,103.196 116.129 C 103.495 115.920,114.157 105.330,126.888 92.596 C 139.619 79.861,150.222 69.442,150.450 69.442 C 150.679 69.442,154.522 73.129,158.990 77.634 L 167.116 85.826 183.294 69.589 C 195.315 57.526,199.640 53.352,200.122 53.352 C 200.604 53.352,204.448 57.049,215.019 67.678 M189.028 85.586 C 183.030 91.660,178.123 96.707,178.123 96.803 C 178.123 96.898,182.569 101.416,188.003 106.841 C 197.334 116.159,198.310 117.242,197.586 117.483 C 197.423 117.537,192.909 121.955,187.554 127.300 L 177.819 137.017 188.345 147.543 C 194.134 153.332,199.239 158.343,199.689 158.678 L 200.507 159.288 210.698 149.003 C 216.303 143.347,221.316 138.371,221.838 137.946 L 222.788 137.174 212.735 127.109 C 207.206 121.573,202.682 116.941,202.682 116.816 C 202.682 116.691,207.150 112.149,212.611 106.724 C 221.735 97.658,222.507 96.817,222.138 96.348 C 221.388 95.393,200.855 75.037,200.393 74.789 C 200.027 74.594,197.707 76.798,189.028 85.586 M136.194 102.750 L 122.082 116.861 136.273 131.049 L 150.463 145.236 153.839 141.849 C 155.696 139.986,157.220 138.312,157.225 138.129 C 157.235 137.749,157.800 138.327,145.455 126.079 C 140.312 120.977,136.160 116.658,136.229 116.482 C 136.297 116.305,136.785 115.866,137.314 115.505 C 137.842 115.145,140.412 112.692,143.026 110.055 C 150.801 102.211,156.491 96.585,157.086 96.154 C 157.587 95.792,151.284 88.638,150.464 88.638 C 150.377 88.638,143.956 94.988,136.194 102.750 M246.266 92.179 L 242.849 95.686 245.796 98.584 C 247.417 100.178,248.891 101.631,249.072 101.814 C 257.503 110.339,261.027 113.802,262.456 114.965 C 264.066 116.275,264.639 117.236,263.955 117.478 C 263.623 117.596,255.579 125.537,248.747 132.493 C 245.903 135.387,243.448 137.756,243.289 137.756 C 242.734 137.756,247.492 142.995,249.748 144.868 C 250.085 145.147,252.585 142.752,264.199 131.019 L 278.243 116.832 264.231 102.735 C 256.524 94.982,250.098 88.645,249.951 88.654 C 249.803 88.664,248.145 90.249,246.266 92.179 M164.432 110.330 C 162.414 112.439,160.161 114.677,159.426 115.304 C 157.636 116.831,157.702 117.123,160.406 119.641 C 161.685 120.832,163.876 122.982,165.276 124.418 C 166.676 125.854,168.002 127.029,168.224 127.029 C 168.445 127.029,170.875 124.752,173.623 121.969 L 178.620 116.910 173.502 111.665 C 170.687 108.780,168.320 106.437,168.243 106.458 C 168.165 106.479,166.450 108.222,164.432 110.330 M227.249 111.362 C 224.540 114.079,222.224 116.302,222.101 116.302 C 221.366 116.302,222.427 117.563,227.053 122.184 L 232.229 127.354 237.286 122.233 C 240.067 119.416,242.375 117.024,242.414 116.916 C 242.453 116.809,240.166 114.404,237.330 111.571 L 232.174 106.421 227.249 111.362 M87.085 218.349 L 87.085 239.802 82.774 239.880 C 79.472 239.940,78.437 239.874,78.350 239.598 C 78.037 238.609,77.922 197.504,78.231 197.132 C 78.488 196.822,79.451 196.756,82.821 196.817 L 87.085 196.895 87.085 218.349 M165.910 209.214 C 165.946 215.946,165.978 221.949,165.980 222.555 C 165.984 223.600,166.167 223.369,169.528 218.071 C 171.477 214.999,173.397 212.058,173.796 211.535 L 174.520 210.586 179.568 210.586 C 183.137 210.586,184.615 210.679,184.615 210.905 C 184.615 211.444,183.501 213.097,180.394 217.171 C 174.177 225.323,174.388 223.793,178.692 229.499 C 181.304 232.962,185.113 238.601,185.317 239.308 L 185.500 239.944 180.523 239.944 C 174.823 239.944,174.824 239.944,173.600 237.762 C 173.096 236.866,172.272 235.498,171.768 234.721 C 171.264 233.945,169.756 231.606,168.418 229.524 C 166.037 225.821,165.984 225.763,165.977 226.843 C 165.972 227.450,165.940 230.614,165.906 233.874 L 165.843 239.802 161.750 239.873 C 159.499 239.912,157.495 239.838,157.296 239.710 C 156.752 239.358,156.432 197.803,156.969 197.156 C 157.289 196.771,157.943 196.726,161.592 196.841 L 165.843 196.974 165.910 209.214 M292.668 217.784 C 292.711 229.273,292.676 238.962,292.590 239.316 C 292.436 239.954,292.404 239.958,288.137 239.880 L 283.839 239.802 283.698 238.048 L 283.557 236.293 282.145 237.583 C 272.541 246.360,259.797 235.197,263.189 220.978 C 265.527 211.177,275.804 206.718,282.808 212.466 L 283.753 213.241 283.546 205.733 C 283.432 201.604,283.423 197.891,283.526 197.483 L 283.712 196.739 288.151 196.817 L 292.590 196.895 292.668 217.784 M255.192 197.494 C 256.727 198.109,258.055 200.015,258.079 201.641 C 258.145 205.978,252.183 208.146,248.986 204.949 C 245.103 201.066,249.854 195.359,255.192 197.494 M62.172 199.675 C 72.578 201.762,74.691 212.303,65.664 217.092 C 64.031 217.958,64.039 218.036,65.802 218.443 C 73.063 220.119,75.058 230.284,69.233 235.928 C 65.931 239.127,63.103 239.737,51.385 239.774 L 42.484 239.802 42.407 219.770 C 42.364 208.753,42.382 199.599,42.448 199.429 C 42.644 198.918,59.442 199.127,62.172 199.675 M210.021 199.707 C 219.903 202.021,221.500 212.714,212.632 217.194 C 211.320 217.857,211.578 218.490,213.161 218.490 C 218.109 218.490,221.612 227.151,218.912 232.712 C 216.163 238.375,212.543 239.682,199.083 239.872 L 189.697 240.005 189.697 231.128 C 189.697 226.246,189.613 217.095,189.510 210.792 L 189.323 199.331 190.568 199.205 C 193.982 198.857,207.932 199.218,210.021 199.707 M51.796 206.696 C 51.709 207.050,51.674 209.118,51.718 211.291 L 51.800 215.243 53.776 215.336 C 59.916 215.622,63.723 210.922,59.905 207.768 C 58.027 206.216,52.109 205.434,51.796 206.696 M199.167 206.422 C 198.782 207.662,198.806 214.574,199.197 214.965 C 199.742 215.510,203.793 215.517,205.312 214.976 C 209.055 213.641,209.746 208.854,206.435 207.200 C 204.529 206.248,199.392 205.698,199.167 206.422 M113.076 210.459 C 127.448 213.793,127.953 235.322,113.761 239.712 C 104.477 242.584,95.064 237.985,93.147 229.640 C 90.228 216.938,100.089 207.448,113.076 210.459 M148.200 210.322 C 151.301 210.822,151.306 210.829,151.306 215.092 C 151.306 219.339,151.349 219.276,149.172 218.167 C 143.239 215.146,136.459 219.497,136.981 225.991 C 137.483 232.254,143.560 235.087,149.825 231.980 C 151.347 231.226,151.255 231.045,151.333 234.950 C 151.410 238.805,151.410 238.804,148.896 239.690 C 138.316 243.417,127.594 236.441,127.594 225.829 C 127.594 214.717,136.042 208.359,148.200 210.322 M244.306 214.146 C 244.541 218.877,244.524 218.918,242.600 218.476 C 239.075 217.666,237.124 218.544,235.349 221.736 C 234.749 222.814,234.715 223.246,234.580 231.334 L 234.439 239.802 229.922 239.802 L 225.406 239.802 225.406 225.265 L 225.406 210.727 229.922 210.727 L 234.439 210.727 234.341 212.773 C 234.240 214.873,234.534 215.397,235.158 214.230 C 236.584 211.567,239.129 210.091,242.376 210.045 L 244.102 210.021 244.306 214.146 M315.515 210.967 C 316.325 211.378,317.426 212.099,317.963 212.571 C 319.029 213.507,319.139 213.458,319.226 212.012 C 319.257 211.477,319.329 210.993,319.384 210.938 C 319.543 210.780,327.776 210.815,327.936 210.975 C 328.176 211.215,328.210 233.649,327.975 237.262 C 327.415 245.905,324.759 249.677,317.513 252.124 C 312.962 253.660,305.079 253.490,301.734 251.784 L 300.609 251.210 300.801 247.623 C 300.907 245.651,301.016 244.007,301.044 243.972 C 301.072 243.936,301.976 244.272,303.053 244.719 C 311.326 248.153,317.841 245.512,318.969 238.266 C 319.317 236.031,319.318 236.032,317.967 237.275 C 308.401 246.079,295.607 236.175,298.365 222.100 C 298.818 219.785,299.802 216.796,300.110 216.796 C 300.244 216.796,300.353 216.649,300.353 216.469 C 300.353 215.818,302.618 213.162,303.940 212.262 C 307.438 209.881,312.304 209.336,315.515 210.967 M351.786 210.339 C 358.076 211.673,361.327 216.814,361.327 225.426 L 361.327 227.805 352.144 227.805 C 341.852 227.805,342.252 227.715,343.194 229.831 C 344.846 233.541,349.518 234.693,355.540 232.875 C 356.627 232.547,357.837 232.215,358.230 232.136 L 358.943 231.994 358.838 235.051 C 358.714 238.681,358.793 238.573,355.540 239.529 C 344.940 242.646,335.924 238.571,334.071 229.827 C 331.419 217.314,340.027 207.844,351.786 210.339 M257.095 225.194 L 257.022 239.802 252.576 239.880 L 248.130 239.958 248.131 229.718 C 248.131 224.086,248.215 217.477,248.316 215.032 L 248.501 210.586 252.834 210.586 L 257.168 210.586 257.095 225.194 M346.224 216.752 C 345.130 217.422,343.314 219.441,342.954 220.388 C 342.409 221.821,342.585 221.877,347.592 221.877 C 352.867 221.877,353.030 221.817,352.540 220.042 C 351.703 217.010,348.515 215.349,346.224 216.752 M276.076 217.713 C 270.442 220.724,270.924 232.164,276.722 233.033 C 280.328 233.574,282.674 231.564,283.597 227.143 C 284.934 220.736,280.597 215.297,276.076 217.713 M312.163 217.484 C 306.010 219.614,305.742 231.559,311.816 232.918 C 315.808 233.811,318.634 231.106,319.127 225.922 C 319.629 220.630,315.950 216.172,312.163 217.484 M105.653 217.914 C 100.292 220.348,100.884 231.558,106.445 232.892 C 111.739 234.162,114.949 230.614,114.535 223.952 C 114.200 218.564,110.205 215.848,105.653 217.914 M51.870 222.597 C 51.754 222.719,51.658 225.033,51.658 227.739 L 51.658 232.661 55.258 232.561 C 58.465 232.472,58.994 232.384,60.116 231.756 C 63.891 229.644,63.761 225.124,59.868 223.150 C 58.830 222.624,52.278 222.171,51.870 222.597 M199.166 222.703 C 198.876 223.172,198.815 231.812,199.099 232.251 C 199.548 232.945,205.407 232.710,207.079 231.931 C 211.232 229.997,211.139 224.305,206.934 223.045 C 205.216 222.530,199.430 222.275,199.166 222.703 " stroke="none" fill="transparent" fill-rule="evenodd"/><path id="path2" d="M183.793 69.777 C 168.007 85.644,167.740 85.930,168.162 86.573 C 168.397 86.932,168.496 87.227,168.382 87.227 C 168.267 87.227,168.331 87.416,168.522 87.647 C 168.714 87.878,169.016 87.985,169.192 87.884 C 169.369 87.783,169.413 87.810,169.291 87.944 C 169.170 88.078,170.819 89.940,172.957 92.082 C 176.916 96.049,177.970 96.701,178.603 95.577 C 178.988 94.893,199.876 73.959,200.173 73.959 C 200.525 73.959,223.006 96.359,223.006 96.710 C 223.006 96.852,225.134 99.049,227.735 101.593 C 237.668 111.309,243.049 116.674,243.049 116.863 C 243.049 116.971,240.842 119.293,238.146 122.024 C 235.181 125.025,233.190 127.264,233.109 127.687 C 232.938 128.578,241.379 137.250,242.515 137.349 C 243.059 137.397,245.169 135.421,253.425 127.126 L 263.659 116.844 260.341 113.643 C 254.240 107.759,234.580 88.000,234.580 87.753 C 234.580 87.619,234.390 87.509,234.157 87.509 C 233.924 87.509,233.733 87.318,233.733 87.085 C 233.733 86.853,233.626 86.662,233.494 86.662 C 233.363 86.662,229.584 82.965,225.096 78.446 C 209.037 62.275,200.330 53.634,200.094 53.634 C 199.962 53.634,192.626 60.898,183.793 69.777 M155.811 97.904 C 154.808 98.808,152.082 101.504,149.753 103.894 C 142.588 111.249,139.072 114.732,137.968 115.568 C 136.499 116.679,135.831 115.842,147.424 127.407 C 153.207 133.177,157.969 138.051,158.006 138.239 C 158.098 138.708,162.037 142.431,162.348 142.343 C 162.485 142.304,162.565 142.386,162.526 142.524 C 162.455 142.780,166.733 147.335,167.019 147.307 C 167.190 147.291,171.729 151.790,188.694 168.795 C 194.896 175.012,200.111 180.099,200.282 180.099 C 200.454 180.099,205.668 174.988,211.871 168.742 C 218.073 162.496,225.116 155.491,227.523 153.174 C 232.298 148.578,233.216 147.409,232.390 146.973 C 231.588 146.550,230.355 145.308,230.502 145.072 C 230.639 144.850,230.110 144.402,229.701 144.394 C 229.580 144.392,229.315 144.072,229.114 143.684 C 228.912 143.296,228.567 143.020,228.347 143.072 C 228.127 143.124,228.034 143.079,228.141 142.972 C 228.373 142.739,228.177 142.480,225.970 140.091 C 222.865 136.730,224.537 135.663,210.228 150.134 C 204.986 155.436,200.558 159.774,200.388 159.774 C 200.218 159.774,198.120 157.837,195.726 155.469 C 193.332 153.102,188.800 148.624,185.655 145.519 C 182.511 142.414,179.314 139.111,178.553 138.179 C 176.497 135.665,174.106 133.246,173.840 133.410 C 173.711 133.490,173.606 133.399,173.606 133.209 C 173.606 133.019,173.520 132.949,173.414 133.055 C 173.168 133.301,171.630 131.840,171.630 131.361 C 171.630 131.163,171.376 130.865,171.066 130.699 C 170.755 130.532,170.501 130.230,170.501 130.027 C 170.501 129.578,169.542 128.665,169.278 128.863 C 169.175 128.941,169.153 128.920,169.231 128.816 C 169.415 128.571,168.532 127.594,168.126 127.594 C 167.955 127.594,166.292 126.055,164.430 124.174 C 162.568 122.293,160.251 120.054,159.280 119.199 C 156.906 117.107,156.814 117.320,162.604 111.527 L 167.692 106.436 166.768 105.057 C 166.259 104.298,165.790 103.723,165.725 103.780 C 165.517 103.961,164.573 102.962,164.573 102.560 C 164.573 102.348,164.255 102.053,163.867 101.905 C 163.479 101.758,163.162 101.563,163.162 101.472 C 163.162 101.382,163.320 101.403,163.514 101.520 C 163.757 101.665,163.747 101.583,163.482 101.257 C 163.271 100.996,162.965 100.864,162.804 100.964 C 162.642 101.064,162.592 101.014,162.691 100.852 C 162.918 100.486,162.207 99.857,161.891 100.144 C 161.764 100.259,161.730 100.226,161.816 100.071 C 161.999 99.742,161.328 99.034,161.075 99.288 C 160.980 99.382,160.903 99.255,160.903 99.005 C 160.903 98.756,160.757 98.461,160.577 98.350 C 160.375 98.225,160.328 98.272,160.453 98.474 C 160.564 98.654,160.580 98.800,160.490 98.800 C 160.399 98.800,160.204 98.483,160.056 98.095 C 159.909 97.706,159.614 97.389,159.401 97.389 C 159.189 97.389,158.785 97.135,158.504 96.824 C 157.816 96.064,157.881 96.039,155.811 97.904 " stroke="none" fill="#ffffff" fill-rule="evenodd"/><path id="path3" d="M139.402 80.083 C 133.537 85.935,128.794 90.779,128.862 90.848 C 128.931 90.916,133.760 86.180,139.595 80.323 C 146.871 73.019,150.336 69.726,150.628 69.838 C 150.869 69.930,150.978 69.880,150.880 69.722 C 150.494 69.097,149.646 69.862,139.402 80.083 M249.694 69.707 C 249.592 69.871,249.674 69.939,249.879 69.860 C 250.096 69.777,259.931 79.406,273.814 93.293 L 297.382 116.867 273.754 140.500 L 250.125 164.133 249.269 163.312 C 248.798 162.861,248.412 162.618,248.412 162.773 C 248.412 163.040,249.913 164.291,250.233 164.291 C 250.416 164.291,297.361 117.209,297.458 116.927 C 297.537 116.698,250.635 69.666,250.174 69.512 C 250.010 69.458,249.794 69.545,249.694 69.707 M241.225 77.900 C 236.885 82.242,233.401 85.859,233.482 85.940 C 233.562 86.021,235.271 84.406,237.278 82.352 C 239.285 80.297,242.829 76.680,245.152 74.312 C 247.476 71.944,249.317 70.007,249.245 70.007 C 249.173 70.007,245.564 73.559,241.225 77.900 M154.419 73.520 C 156.192 75.296,157.703 76.689,157.776 76.615 C 157.953 76.439,151.820 70.289,151.468 70.289 C 151.319 70.289,152.647 71.743,154.419 73.520 M158.923 78.048 C 159.448 78.589,159.940 78.969,160.017 78.892 C 160.202 78.706,158.619 77.064,158.255 77.064 C 158.098 77.064,158.399 77.507,158.923 78.048 M162.307 81.431 C 163.459 82.591,164.453 83.488,164.517 83.425 C 164.683 83.259,160.817 79.324,160.487 79.323 C 160.336 79.323,161.154 80.272,162.307 81.431 M166.408 85.533 C 168.143 87.286,168.982 87.900,167.519 86.346 C 165.833 84.554,165.090 83.839,164.913 83.839 C 164.813 83.839,165.486 84.601,166.408 85.533 M236.133 89.203 C 237.679 90.755,239.008 92.025,239.086 92.025 C 239.164 92.025,237.962 90.755,236.415 89.203 C 234.868 87.650,233.539 86.380,233.462 86.380 C 233.384 86.380,234.586 87.650,236.133 89.203 M149.471 88.920 C 148.881 89.572,149.160 89.695,149.793 89.061 C 150.430 88.425,150.390 88.397,153.906 91.955 C 155.708 93.779,157.735 95.778,158.408 96.396 C 159.082 97.014,157.602 95.458,155.120 92.938 C 150.346 88.092,150.270 88.037,149.471 88.920 M246.177 91.920 C 244.249 93.877,242.955 95.304,243.301 95.092 C 243.647 94.880,245.224 93.343,246.806 91.676 C 248.388 90.009,249.804 88.644,249.953 88.642 C 250.102 88.640,255.660 94.109,262.303 100.797 C 268.947 107.484,274.382 112.850,274.382 112.722 C 274.382 112.383,250.298 88.355,249.963 88.360 C 249.809 88.362,248.105 89.964,246.177 91.920 M135.356 103.191 C 128.059 110.530,122.279 116.427,122.512 116.295 C 123.153 115.931,149.229 89.761,148.905 89.807 C 148.750 89.829,142.653 95.851,135.356 103.191 M127.733 91.745 C 126.978 92.579,127.382 92.710,128.159 91.883 C 128.523 91.496,128.692 91.179,128.533 91.179 C 128.375 91.179,128.015 91.433,127.733 91.745 M124.338 95.139 C 122.952 96.532,121.927 97.671,122.061 97.671 C 122.384 97.671,127.147 92.897,126.985 92.735 C 126.916 92.665,125.724 93.747,124.338 95.139 M177.081 96.119 C 177.195 96.274,181.891 101.007,187.516 106.637 L 197.742 116.873 196.401 118.021 C 195.663 118.652,195.060 119.291,195.060 119.440 C 195.060 119.589,195.578 119.198,196.211 118.571 C 196.845 117.944,197.480 117.431,197.623 117.431 C 198.573 117.431,196.611 115.278,187.333 106.140 C 181.579 100.473,176.966 95.963,177.081 96.119 M212.486 106.848 C 207.093 112.205,202.682 116.691,202.682 116.815 C 202.682 117.062,223.550 138.038,223.796 138.038 C 223.984 138.038,225.395 139.476,213.307 127.350 C 207.584 121.610,202.948 116.807,203.006 116.678 C 203.063 116.549,207.499 112.092,212.863 106.775 C 218.228 101.457,222.543 97.107,222.453 97.107 C 222.363 97.107,217.878 101.490,212.486 106.848 M120.958 98.520 C 120.204 99.354,120.608 99.485,121.384 98.658 C 121.748 98.270,121.917 97.953,121.758 97.953 C 121.600 97.953,121.240 98.208,120.958 98.520 M116.455 103.028 C 114.909 104.571,113.702 105.892,113.773 105.963 C 113.844 106.034,115.235 104.769,116.864 103.152 C 118.494 101.535,119.700 100.214,119.546 100.216 C 119.392 100.219,118.001 101.484,116.455 103.028 M169.800 107.904 C 171.797 109.961,174.627 112.834,176.090 114.288 L 178.751 116.933 177.384 118.152 C 176.632 118.823,176.086 119.440,176.170 119.524 C 176.253 119.608,176.940 119.049,177.696 118.281 L 179.071 116.886 173.163 110.918 C 169.913 107.636,167.087 104.773,166.882 104.557 C 166.677 104.341,166.433 104.164,166.340 104.164 C 166.247 104.164,167.804 105.847,169.800 107.904 M231.780 106.163 C 231.767 106.408,229.471 108.864,226.676 111.621 C 223.881 114.378,221.595 116.718,221.595 116.823 C 221.595 116.928,224.104 119.489,227.170 122.515 L 232.745 128.017 227.311 122.510 C 221.091 116.206,221.422 116.898,223.668 114.891 C 226.950 111.958,232.107 106.483,231.953 106.095 C 231.842 105.816,231.796 105.834,231.780 106.163 M108.994 110.547 C 106.605 112.945,104.708 114.964,104.777 115.034 C 104.847 115.103,106.855 113.195,109.240 110.793 C 111.625 108.391,113.523 106.372,113.457 106.306 C 113.392 106.241,111.383 108.149,108.994 110.547 M274.665 113.114 C 274.665 113.290,275.497 114.185,276.513 115.103 L 278.362 116.771 274.766 120.341 C 272.788 122.304,271.232 123.972,271.307 124.047 C 271.382 124.123,273.083 122.538,275.087 120.526 L 278.731 116.868 276.698 114.831 C 275.580 113.711,274.665 112.938,274.665 113.114 M103.487 115.877 L 102.669 116.530 104.046 118.092 C 104.803 118.951,105.481 119.595,105.552 119.524 C 105.623 119.453,105.149 118.853,104.499 118.191 C 103.149 116.816,103.073 116.505,103.935 115.901 C 104.275 115.663,104.497 115.413,104.429 115.346 C 104.361 115.279,103.937 115.518,103.487 115.877 M121.959 116.917 C 122.316 117.443,150.272 145.378,150.441 145.378 C 150.550 145.378,152.225 143.790,154.164 141.849 C 156.104 139.908,157.605 138.320,157.501 138.320 C 157.397 138.320,155.772 139.876,153.889 141.778 L 150.465 145.236 136.147 130.981 C 128.272 123.140,121.888 116.812,121.959 116.917 M105.861 119.835 C 105.865 120.111,127.695 141.974,128.370 142.377 C 129.109 142.819,128.421 142.111,117.290 130.984 C 111.002 124.699,105.859 119.681,105.861 119.835 M171.889 123.678 C 169.780 125.816,168.382 127.326,168.784 127.034 C 169.784 126.306,176.008 120.015,175.850 119.891 C 175.781 119.836,173.998 121.540,171.889 123.678 M186.957 127.578 C 182.734 131.845,179.310 135.367,179.348 135.406 C 179.387 135.444,182.900 131.992,187.156 127.735 C 191.412 123.477,194.836 119.954,194.765 119.907 C 194.694 119.859,191.181 123.311,186.957 127.578 M260.428 134.803 C 254.848 140.464,250.201 145.095,250.100 145.095 C 249.998 145.095,248.466 143.624,246.694 141.826 C 244.922 140.028,243.091 138.295,242.625 137.977 C 242.159 137.658,242.692 138.272,243.808 139.341 C 244.924 140.410,246.765 142.272,247.901 143.480 L 249.965 145.676 260.543 135.082 C 266.361 129.256,270.997 124.493,270.846 124.500 C 270.695 124.506,266.007 129.143,260.428 134.803 M172.054 131.546 C 172.975 132.477,173.793 133.239,173.871 133.239 C 173.948 133.239,173.258 132.477,172.336 131.546 C 171.414 130.614,170.596 129.852,170.519 129.852 C 170.441 129.852,171.132 130.614,172.054 131.546 M177.982 136.081 C 177.463 136.413,177.309 136.624,177.585 136.625 C 177.833 136.626,178.265 136.373,178.546 136.062 C 179.167 135.376,179.077 135.379,177.982 136.081 M139.323 153.566 C 145.231 159.465,150.219 164.291,150.407 164.291 C 151.129 164.291,166.833 148.289,166.830 147.556 C 166.830 147.367,166.589 147.594,166.294 148.059 C 166.000 148.525,162.329 152.323,158.136 156.499 L 150.513 164.092 149.791 163.525 C 149.395 163.213,144.599 158.430,139.135 152.897 C 133.670 147.364,129.060 142.838,128.890 142.839 C 128.720 142.840,133.415 147.667,139.323 153.566 M230.769 145.095 C 231.691 146.027,232.509 146.789,232.586 146.789 C 232.664 146.789,231.973 146.027,231.052 145.095 C 230.130 144.164,229.312 143.402,229.234 143.402 C 229.157 143.402,229.847 144.164,230.769 145.095 M233.574 148.164 C 234.030 148.650,234.526 149.047,234.677 149.047 C 235.047 149.047,234.020 147.938,233.313 147.573 C 232.908 147.364,232.982 147.533,233.574 148.164 M235.705 150.313 C 236.230 150.854,236.722 151.234,236.799 151.157 C 236.984 150.972,235.401 149.330,235.036 149.330 C 234.880 149.330,235.181 149.772,235.705 150.313 M239.102 153.692 C 240.252 154.849,241.255 155.734,241.329 155.660 C 241.508 155.481,237.641 151.588,237.285 151.588 C 237.134 151.588,237.952 152.535,239.102 153.692 M244.745 159.341 C 246.514 161.121,247.999 162.540,248.045 162.494 C 248.189 162.350,242.076 156.096,241.795 156.100 C 241.649 156.103,242.977 157.561,244.745 159.341 M78.231 197.132 C 77.922 197.504,78.037 238.609,78.350 239.598 C 78.437 239.874,79.472 239.940,82.774 239.880 L 87.085 239.802 87.085 218.349 L 87.085 196.895 82.821 196.817 C 79.451 196.756,78.488 196.822,78.231 197.132 M156.969 197.156 C 156.432 197.803,156.752 239.358,157.296 239.710 C 157.495 239.838,159.499 239.912,161.750 239.873 L 165.843 239.802 165.852 233.874 L 165.862 227.946 165.776 233.663 L 165.690 239.379 161.462 239.379 L 157.234 239.379 157.219 220.254 C 157.212 209.735,157.180 200.303,157.149 199.294 L 157.092 197.459 161.394 197.382 L 165.696 197.304 165.774 209.379 L 165.853 221.454 165.848 209.214 L 165.843 196.974 161.592 196.841 C 157.943 196.726,157.289 196.771,156.969 197.156 M283.590 197.193 C 283.494 197.443,283.443 199.637,283.476 202.070 L 283.536 206.493 283.687 201.835 L 283.839 197.177 288.073 197.177 L 292.308 197.177 292.308 218.349 L 292.308 239.520 288.144 239.564 L 283.980 239.608 283.980 237.800 C 283.980 235.834,283.653 235.514,282.710 236.556 C 282.429 236.867,282.330 237.121,282.490 237.121 C 282.651 237.121,282.956 236.909,283.169 236.651 C 283.508 236.239,283.574 236.406,283.698 237.991 L 283.839 239.802 288.137 239.880 C 292.404 239.958,292.436 239.954,292.590 239.316 C 292.676 238.962,292.711 229.273,292.668 217.784 L 292.590 196.895 288.177 196.817 C 284.338 196.750,283.741 196.799,283.590 197.193 M86.875 218.270 L 86.803 239.503 82.770 239.538 C 80.552 239.558,78.693 239.498,78.639 239.406 C 78.424 239.039,78.350 197.718,78.563 197.389 C 78.728 197.133,79.917 197.036,82.870 197.036 L 86.948 197.036 86.875 218.270 M250.183 197.627 C 248.963 198.231,247.688 199.863,247.943 200.495 C 248.031 200.713,248.094 200.667,248.108 200.375 C 248.251 197.341,253.883 196.305,256.575 198.818 L 257.539 199.718 256.931 198.832 C 255.735 197.089,252.453 196.503,250.183 197.627 M42.473 199.365 C 42.399 199.559,42.371 208.546,42.411 219.337 L 42.484 238.956 42.625 218.984 C 42.703 207.999,42.731 199.012,42.687 199.012 C 42.643 199.012,42.547 199.171,42.473 199.365 M49.176 199.221 C 50.217 199.275,51.996 199.276,53.128 199.222 C 54.260 199.168,53.409 199.124,51.235 199.123 C 49.061 199.123,48.135 199.167,49.176 199.221 M195.147 199.223 C 197.136 199.272,200.311 199.271,202.204 199.223 C 204.097 199.174,202.470 199.134,198.589 199.134 C 194.707 199.135,193.158 199.174,195.147 199.223 M59.829 199.611 C 62.488 199.919,64.888 200.531,66.337 201.270 C 66.958 201.587,67.466 201.773,67.466 201.684 C 67.466 200.943,61.324 199.255,58.902 199.331 C 58.071 199.357,58.342 199.439,59.829 199.611 M189.473 206.987 C 189.532 214.663,189.628 213.782,189.765 204.305 C 189.805 201.549,189.742 199.294,189.626 199.294 C 189.510 199.294,189.441 202.756,189.473 206.987 M207.763 199.605 C 214.017 200.591,217.763 203.382,217.955 207.198 C 217.980 207.686,218.031 207.750,218.121 207.406 C 219.020 203.956,212.474 199.139,207.143 199.327 C 206.463 199.351,206.632 199.427,207.763 199.605 M247.631 201.835 C 247.631 202.378,247.689 202.601,247.760 202.329 C 247.831 202.057,247.831 201.613,247.760 201.341 C 247.689 201.069,247.631 201.291,247.631 201.835 M67.749 201.893 C 67.749 201.973,68.184 202.499,68.716 203.063 C 70.614 205.076,71.439 209.204,70.427 211.626 C 70.192 212.188,70.057 212.706,70.128 212.777 C 70.306 212.955,71.076 211.054,71.292 209.902 C 71.561 208.469,70.900 205.830,69.873 204.238 C 69.050 202.962,67.749 201.525,67.749 201.893 M256.931 204.196 C 256.273 205.202,256.177 205.463,256.607 205.073 C 257.206 204.531,258.142 202.985,257.960 202.838 C 257.910 202.797,257.447 203.409,256.931 204.196 M247.865 203.220 C 247.845 203.684,249.249 205.608,249.457 205.401 C 249.535 205.323,249.319 204.965,248.977 204.606 C 248.636 204.246,248.250 203.698,248.120 203.387 C 247.985 203.066,247.876 202.994,247.865 203.220 M255.046 205.787 C 254.735 205.920,253.656 206.051,252.646 206.078 C 251.017 206.121,250.922 206.153,251.800 206.361 C 252.842 206.607,255.345 206.217,255.625 205.764 C 255.810 205.464,255.796 205.464,255.046 205.787 M51.668 206.333 C 51.504 206.639,51.376 208.731,51.376 211.102 C 51.376 215.991,51.175 215.693,54.434 215.614 L 56.598 215.562 54.199 215.403 L 51.800 215.243 51.718 211.291 C 51.614 206.212,51.676 205.952,52.938 206.157 C 53.470 206.244,53.980 206.196,54.069 206.051 C 54.160 205.904,53.728 205.787,53.096 205.787 C 52.262 205.787,51.883 205.932,51.668 206.333 M199.083 205.974 C 198.824 206.078,198.745 206.995,198.786 209.410 L 198.842 212.703 198.998 209.457 L 199.153 206.210 200.282 206.039 L 201.411 205.867 200.423 205.849 C 199.880 205.839,199.277 205.896,199.083 205.974 M56.554 206.379 C 60.406 206.942,62.081 209.345,60.738 212.382 C 60.418 213.106,59.959 213.773,59.718 213.866 C 59.477 213.958,59.280 214.167,59.280 214.329 C 59.280 214.886,60.488 213.551,61.008 212.421 C 62.484 209.205,60.048 206.024,56.175 206.110 C 54.921 206.138,54.925 206.141,56.554 206.379 M203.555 206.347 C 208.733 207.013,210.398 211.795,206.380 214.465 C 205.853 214.815,205.527 215.102,205.657 215.102 C 206.903 215.102,208.892 212.203,208.892 210.388 C 208.892 208.122,206.227 206.035,203.426 206.106 L 201.976 206.143 203.555 206.347 M283.698 210.481 L 283.698 213.199 282.781 212.444 C 277.078 207.756,267.862 210.153,264.537 217.190 C 262.401 221.712,262.097 229.970,263.962 232.846 C 264.217 233.239,264.234 233.223,264.076 232.745 C 262.509 228.004,262.847 221.226,264.847 217.245 C 268.245 210.483,276.871 208.084,282.171 212.427 C 283.915 213.856,283.980 213.789,283.980 210.586 C 283.980 209.033,283.917 207.763,283.839 207.763 C 283.761 207.763,283.698 208.986,283.698 210.481 M103.458 210.559 C 101.304 211.192,99.515 211.959,99.718 212.162 C 99.804 212.248,100.391 212.055,101.022 211.733 C 107.393 208.483,116.678 210.425,121.199 215.954 L 122.003 216.937 121.481 215.989 C 118.930 211.352,109.959 208.649,103.458 210.559 M139.368 210.343 C 137.958 210.614,134.933 211.839,134.933 212.139 C 134.933 212.235,135.028 212.263,135.145 212.202 C 138.930 210.216,146.849 209.603,149.837 211.063 L 150.882 211.574 150.961 215.181 L 151.040 218.789 149.346 217.934 C 143.197 214.829,136.240 219.206,136.701 225.889 C 137.029 230.642,140.134 233.529,144.794 233.411 C 146.316 233.373,146.298 233.365,144.248 233.166 C 139.705 232.723,137.333 230.382,136.981 225.991 C 136.459 219.497,143.239 215.146,149.172 218.167 C 151.349 219.276,151.306 219.339,151.306 215.092 C 151.306 211.621,151.275 211.426,150.670 211.032 C 149.278 210.124,142.625 209.719,139.368 210.343 M217.955 210.445 C 217.824 212.538,215.557 215.321,212.773 216.809 C 211.881 217.286,211.150 217.782,211.150 217.912 C 211.150 218.200,212.021 218.560,212.226 218.355 C 212.307 218.274,212.225 218.207,212.044 218.207 C 211.364 218.207,211.753 217.635,212.793 217.104 C 215.760 215.591,218.560 212.048,218.118 210.366 C 218.013 209.965,217.984 209.979,217.955 210.445 M239.942 210.285 C 238.116 210.840,236.069 212.529,235.158 214.230 C 234.685 215.115,234.345 214.944,234.221 213.761 L 234.110 212.703 234.063 213.903 C 233.998 215.544,234.524 215.467,235.994 213.620 C 237.900 211.226,239.215 210.529,241.915 210.483 C 243.157 210.462,244.174 210.349,244.175 210.233 C 244.179 209.961,240.872 210.002,239.942 210.285 M307.006 210.705 C 305.930 211.095,304.852 211.612,304.610 211.854 C 304.330 212.133,304.685 212.048,305.578 211.621 C 309.887 209.561,314.750 210.028,317.855 212.799 C 319.088 213.900,319.384 213.815,319.494 212.328 L 319.581 211.150 323.658 211.150 L 327.735 211.150 327.780 225.335 C 327.805 233.137,327.901 238.375,327.993 236.975 C 328.189 233.981,328.136 211.176,327.933 210.972 C 327.775 210.814,319.540 210.782,319.384 210.938 C 319.329 210.993,319.257 211.477,319.226 212.012 C 319.139 213.458,319.029 213.507,317.963 212.571 C 315.107 210.064,310.801 209.330,307.006 210.705 M343.157 210.717 C 338.770 212.265,335.140 216.119,334.373 220.042 C 334.280 220.519,334.489 220.211,334.853 219.337 C 337.407 213.197,341.624 210.316,348.071 210.307 C 354.352 210.298,358.103 212.816,360.256 218.490 C 360.548 219.258,360.743 219.525,360.750 219.165 C 360.769 218.225,358.860 214.795,357.595 213.496 C 354.420 210.234,348.017 209.002,343.157 210.717 M173.796 211.535 C 173.397 212.058,171.485 214.986,169.546 218.043 C 166.069 223.524,166.019 223.585,165.909 222.527 L 165.797 221.454 165.750 222.677 C 165.682 224.424,166.109 224.115,167.986 221.061 C 168.869 219.624,170.703 216.743,172.062 214.658 L 174.533 210.868 179.440 210.868 L 184.348 210.868 183.881 211.785 C 183.455 212.624,180.764 216.463,180.369 216.796 C 179.640 217.411,175.018 223.945,175.018 224.362 C 175.018 224.909,177.553 228.724,178.171 229.105 C 178.526 229.325,177.863 228.310,176.232 226.141 C 174.800 224.237,174.483 224.921,180.394 217.171 C 183.501 213.097,184.615 211.444,184.615 210.905 C 184.615 210.679,183.137 210.586,179.568 210.586 L 174.520 210.586 173.796 211.535 M225.397 210.931 C 225.321 211.129,225.292 217.706,225.332 225.547 L 225.406 239.802 229.922 239.802 L 234.439 239.802 234.448 231.616 L 234.457 223.430 234.307 231.475 L 234.157 239.520 233.098 239.506 C 232.516 239.498,230.578 239.466,228.791 239.435 L 225.542 239.379 225.615 225.194 L 225.688 211.009 229.910 211.009 L 234.131 211.009 234.340 211.715 C 234.535 212.372,234.546 212.362,234.494 211.574 L 234.439 210.727 229.987 210.649 C 226.580 210.590,225.502 210.656,225.397 210.931 M248.412 210.904 C 248.412 211.135,249.566 211.167,252.625 211.019 L 256.838 210.816 256.958 211.618 C 257.075 212.397,257.080 212.394,257.121 211.503 L 257.163 210.586 252.788 210.586 C 249.728 210.586,248.412 210.681,248.412 210.904 M97.767 213.360 C 95.520 215.136,93.673 218.075,93.289 220.483 C 93.192 221.097,93.333 220.862,93.675 219.844 C 94.613 217.046,96.100 214.971,98.531 213.069 C 99.067 212.649,99.422 212.300,99.320 212.293 C 99.217 212.285,98.518 212.766,97.767 213.360 M133.041 213.369 C 130.914 215.050,128.215 218.923,128.778 219.486 C 128.841 219.549,129.267 218.811,129.724 217.847 C 130.556 216.097,131.940 214.466,133.804 213.041 C 134.347 212.626,134.708 212.284,134.605 212.283 C 134.503 212.281,133.799 212.770,133.041 213.369 M303.094 212.848 C 302.312 213.463,300.352 216.012,300.355 216.410 C 300.356 216.545,300.606 216.277,300.911 215.814 C 301.216 215.352,302.060 214.367,302.788 213.626 C 304.181 212.208,304.303 211.897,303.094 212.848 M68.996 214.120 C 68.173 215.199,66.294 216.571,64.762 217.211 C 64.231 217.433,63.797 217.748,63.797 217.911 C 63.797 218.255,64.270 218.313,64.408 217.985 C 64.460 217.863,65.122 217.404,65.879 216.965 C 67.416 216.073,69.327 214.434,69.750 213.645 C 70.198 212.806,69.812 213.049,68.996 214.120 M57.728 214.994 C 56.606 215.388,56.605 215.390,57.578 215.241 C 58.116 215.159,58.681 214.967,58.834 214.815 C 59.161 214.488,59.173 214.486,57.728 214.994 M198.730 214.928 C 198.730 215.465,200.074 215.741,201.977 215.595 C 203.249 215.497,203.202 215.481,201.502 215.435 C 200.219 215.401,199.475 215.243,199.173 214.941 C 198.781 214.549,198.730 214.547,198.730 214.928 M244.232 216.422 C 244.188 218.087,244.090 218.471,243.684 218.577 C 243.221 218.698,243.221 218.709,243.693 218.739 C 244.378 218.784,244.506 218.314,244.388 216.202 L 244.287 214.397 244.232 216.422 M345.624 216.867 C 343.916 218.010,342.366 220.269,342.476 221.454 L 342.555 222.301 347.106 222.378 C 352.785 222.475,353.285 222.330,353.020 220.671 C 352.915 220.015,352.709 219.357,352.561 219.210 C 352.227 218.874,352.227 218.969,352.570 220.163 C 353.038 221.796,352.801 221.877,347.592 221.877 C 342.578 221.877,342.409 221.822,342.959 220.375 C 344.518 216.273,349.100 215.105,351.657 218.157 C 352.006 218.573,352.291 218.768,352.292 218.590 C 352.294 218.161,350.439 216.546,349.562 216.213 C 348.255 215.716,347.042 215.917,345.624 216.867 M248.197 228.165 L 248.130 239.958 252.576 239.880 L 257.022 239.802 257.038 237.403 L 257.055 235.004 256.956 237.367 L 256.858 239.731 255.811 239.558 C 255.235 239.463,253.336 239.384,251.591 239.382 L 248.418 239.379 248.341 227.876 L 248.264 216.373 248.197 228.165 M107.025 217.097 C 105.238 217.453,101.862 220.516,102.526 221.180 C 102.602 221.256,103.063 220.677,103.551 219.892 C 105.128 217.356,109.219 216.439,111.638 218.080 C 112.221 218.476,112.759 218.739,112.833 218.665 C 113.599 217.899,109.099 216.684,107.025 217.097 M189.818 223.430 C 189.818 227.156,189.859 228.641,189.908 226.730 C 189.956 224.820,189.956 221.771,189.907 219.956 C 189.858 218.140,189.818 219.704,189.818 223.430 M276.143 217.392 C 269.889 220.488,270.483 232.452,276.935 233.336 C 278.047 233.488,280.830 233.029,280.542 232.741 C 280.482 232.682,279.900 232.768,279.248 232.934 C 275.125 233.980,272.124 230.869,272.124 225.547 C 272.124 217.693,279.353 214.170,282.874 220.308 C 283.706 221.760,284.042 221.669,283.282 220.198 C 281.889 217.504,278.560 216.196,276.143 217.392 M299.290 218.560 C 297.592 223.748,297.734 230.033,299.632 233.704 C 299.881 234.186,300.148 234.580,300.225 234.580 C 300.301 234.580,300.116 234.093,299.812 233.498 C 297.926 229.801,297.970 222.327,299.903 217.855 C 300.155 217.272,300.250 216.796,300.114 216.796 C 299.979 216.796,299.608 217.590,299.290 218.560 M312.350 216.996 C 310.351 217.513,307.883 220.401,307.575 222.583 L 307.416 223.712 307.790 222.438 C 309.728 215.837,316.440 215.552,318.769 221.971 C 319.278 223.376,319.292 223.389,319.150 222.320 C 318.744 219.267,314.976 216.316,312.350 216.996 M122.823 219.407 C 126.934 231.216,118.052 241.857,105.651 239.984 C 104.445 239.802,103.077 239.593,102.611 239.521 C 102.037 239.431,102.173 239.533,103.035 239.838 C 108.221 241.675,115.908 239.894,120.030 235.900 C 123.967 232.086,125.308 223.056,122.690 217.996 C 121.921 216.508,121.960 216.928,122.823 219.407 M238.179 218.369 C 237.752 218.601,237.403 218.854,237.403 218.932 C 237.403 219.010,237.689 218.921,238.038 218.733 C 238.387 218.545,239.054 218.300,239.520 218.187 C 240.286 218.003,240.299 217.981,239.661 217.965 C 239.273 217.956,238.606 218.137,238.179 218.369 M68.354 219.877 C 69.923 221.001,71.141 222.491,71.693 223.963 C 71.861 224.411,72.067 224.710,72.151 224.626 C 72.707 224.070,70.198 220.797,68.129 219.381 C 66.560 218.308,66.752 218.731,68.354 219.877 M113.667 220.330 C 115.382 223.398,114.679 229.208,112.250 232.040 L 111.644 232.745 112.448 232.040 C 114.153 230.543,115.049 227.500,114.829 223.954 C 114.700 221.861,113.744 219.054,113.161 219.054 C 113.047 219.054,113.275 219.628,113.667 220.330 M216.373 220.541 C 222.674 226.264,219.355 236.975,210.727 238.763 C 209.951 238.924,204.968 239.147,199.654 239.259 L 189.993 239.462 189.908 234.834 L 189.823 230.205 189.760 235.105 L 189.697 240.005 199.083 239.872 C 210.991 239.704,213.313 239.154,216.799 235.676 C 221.517 230.970,220.718 222.038,215.338 219.333 C 214.976 219.151,215.441 219.694,216.373 220.541 M236.195 219.953 C 235.339 221.095,234.578 222.567,234.586 223.063 C 234.590 223.265,234.851 222.858,235.168 222.159 C 235.484 221.461,236.075 220.541,236.482 220.116 C 236.888 219.691,237.147 219.269,237.058 219.180 C 236.969 219.090,236.580 219.438,236.195 219.953 M128.337 220.374 C 127.521 223.092,127.442 227.900,128.171 230.443 C 128.647 232.106,128.709 231.552,128.275 229.499 C 127.786 227.183,127.788 224.552,128.281 222.018 C 128.645 220.151,128.676 219.247,128.337 220.374 M360.833 220.889 C 360.836 221.510,360.894 221.731,360.962 221.380 C 361.029 221.029,361.027 220.521,360.956 220.251 C 360.885 219.981,360.830 220.268,360.833 220.889 M102.081 222.029 C 101.985 222.282,101.918 222.763,101.934 223.100 C 101.953 223.487,102.048 223.349,102.195 222.726 C 102.442 221.677,102.375 221.265,102.081 222.029 M283.763 222.724 C 283.763 223.267,283.822 223.490,283.893 223.218 C 283.964 222.946,283.964 222.502,283.893 222.230 C 283.822 221.958,283.763 222.181,283.763 222.724 M51.560 222.574 C 51.459 222.837,51.403 225.233,51.437 227.899 L 51.498 232.745 51.649 227.664 L 51.800 222.583 55.328 222.611 C 59.848 222.647,61.119 223.193,62.501 225.688 C 62.910 226.425,62.946 226.443,62.782 225.829 C 62.114 223.327,60.115 222.359,55.300 222.208 C 52.153 222.108,51.722 222.151,51.560 222.574 M198.918 222.348 C 198.814 222.451,198.752 223.372,198.778 224.394 L 198.827 226.253 198.990 224.418 L 199.153 222.583 202.351 222.623 C 206.293 222.672,207.784 223.057,208.884 224.311 C 211.019 226.742,210.291 230.593,207.477 231.759 C 207.003 231.955,206.675 232.175,206.747 232.247 C 207.077 232.576,209.276 230.970,209.734 230.066 C 211.371 226.829,210.016 223.614,206.585 222.595 C 205.106 222.155,199.297 221.968,198.918 222.348 M361.044 224.821 C 361.044 227.117,360.977 227.499,360.550 227.611 C 360.179 227.708,360.214 227.748,360.692 227.772 C 361.310 227.804,361.327 227.731,361.327 224.982 C 361.327 223.430,361.263 222.159,361.186 222.159 C 361.108 222.159,361.044 223.357,361.044 224.821 M333.734 223.430 C 333.737 224.051,333.795 224.272,333.862 223.920 C 333.930 223.569,333.927 223.061,333.857 222.791 C 333.786 222.521,333.731 222.809,333.734 223.430 M319.136 225.759 C 318.919 228.178,318.040 230.469,316.885 231.624 C 315.883 232.625,315.970 232.893,316.982 231.923 C 318.453 230.513,320.529 223.571,319.479 223.571 C 319.398 223.571,319.244 224.555,319.136 225.759 M101.708 225.547 C 101.708 226.401,101.761 226.750,101.825 226.323 C 101.890 225.896,101.890 225.198,101.825 224.771 C 101.761 224.344,101.708 224.693,101.708 225.547 M307.199 225.406 C 307.202 226.027,307.260 226.248,307.327 225.896 C 307.395 225.545,307.392 225.037,307.322 224.767 C 307.251 224.497,307.196 224.785,307.199 225.406 M165.750 226.747 L 165.797 227.946 165.909 226.871 L 166.021 225.795 168.436 229.552 C 169.764 231.619,171.264 233.945,171.768 234.721 C 172.272 235.498,173.096 236.866,173.600 237.762 C 174.103 238.659,174.746 239.516,175.030 239.668 C 175.674 240.012,185.462 240.036,185.462 239.693 C 185.462 239.555,185.303 239.448,185.109 239.455 C 184.915 239.462,182.519 239.448,179.785 239.423 L 174.814 239.379 173.937 237.756 C 173.455 236.863,171.881 234.327,170.440 232.121 C 168.999 229.915,167.473 227.533,167.050 226.828 C 166.088 225.227,165.689 225.201,165.750 226.747 M283.524 227.417 C 283.219 229.029,281.662 232.040,281.133 232.040 C 280.991 232.040,280.875 232.186,280.875 232.366 C 280.875 232.881,281.928 231.795,282.691 230.493 C 283.450 229.199,284.088 227.017,283.936 226.240 C 283.883 225.969,283.697 226.498,283.524 227.417 M333.728 227.523 C 333.728 228.066,333.786 228.289,333.857 228.017 C 333.928 227.745,333.928 227.301,333.857 227.029 C 333.786 226.757,333.728 226.980,333.728 227.523 M93.017 228.434 C 93.373 232.519,96.251 236.741,100.066 238.778 C 101.869 239.740,101.927 239.464,100.134 238.458 C 96.427 236.379,94.140 233.160,93.270 228.793 L 92.876 226.817 93.017 228.434 M307.429 227.684 C 307.391 228.854,308.302 230.843,309.306 231.784 L 310.332 232.745 309.301 231.454 C 308.717 230.723,308.092 229.500,307.859 228.632 C 307.633 227.789,307.439 227.363,307.429 227.684 M342.602 227.711 C 341.460 228.853,344.112 232.485,346.865 233.550 C 348.844 234.314,354.919 233.873,356.528 232.847 C 356.851 232.641,356.810 232.615,356.356 232.738 C 349.293 234.648,344.893 233.678,343.193 229.835 C 342.269 227.746,341.977 227.823,351.083 227.734 L 359.210 227.655 351.000 227.589 C 346.484 227.553,342.705 227.608,342.602 227.711 M62.699 228.511 C 62.613 229.946,61.164 231.428,59.066 232.228 L 58.010 232.630 58.997 232.469 C 60.758 232.182,63.180 229.663,62.864 228.447 C 62.751 228.017,62.728 228.026,62.699 228.511 M102.470 229.699 C 102.470 230.159,103.904 232.032,104.500 232.351 C 104.880 232.554,104.719 232.276,104.071 231.609 C 103.501 231.022,103.035 230.378,103.035 230.178 C 103.035 229.978,102.908 229.736,102.752 229.640 C 102.597 229.544,102.470 229.571,102.470 229.699 M178.588 229.852 C 178.706 230.046,178.906 230.332,179.032 230.487 C 179.844 231.487,182.226 234.802,183.581 236.817 C 184.461 238.125,185.180 239.069,185.180 238.916 C 185.180 238.763,184.287 237.375,183.196 235.832 C 182.105 234.290,180.675 232.236,180.020 231.269 C 179.040 229.823,177.850 228.645,178.588 229.852 M334.385 231.042 C 335.124 234.769,338.422 238.202,342.696 239.693 C 344.987 240.492,351.984 240.567,354.411 239.819 C 355.187 239.579,355.441 239.443,354.975 239.515 C 343.328 241.324,337.678 239.019,334.613 231.208 C 334.266 230.325,334.239 230.305,334.385 231.042 M71.286 232.688 C 70.152 235.113,70.149 235.125,70.921 234.016 C 71.569 233.085,72.365 231.199,72.186 231.019 C 72.141 230.974,71.736 231.725,71.286 232.688 M198.763 231.656 C 198.720 232.805,199.008 232.899,202.352 232.831 L 205.081 232.776 202.119 232.619 L 199.157 232.463 198.977 231.616 L 198.797 230.769 198.763 231.656 M149.802 231.954 C 149.363 232.185,149.064 232.433,149.137 232.505 C 149.210 232.578,149.757 232.376,150.354 232.056 C 150.950 231.737,151.250 231.488,151.019 231.505 C 150.789 231.521,150.241 231.723,149.802 231.954 M129.234 232.943 C 130.365 235.823,134.776 239.165,138.652 240.079 C 141.557 240.764,147.686 240.497,149.027 239.628 C 149.370 239.405,149.311 239.378,148.765 239.509 C 140.459 241.496,133.086 239.085,129.832 233.318 C 128.778 231.451,128.605 231.343,129.234 232.943 M357.375 232.326 C 357.068 232.527,357.185 232.559,357.798 232.441 L 358.645 232.279 358.564 234.771 C 358.457 238.067,358.376 238.360,357.454 238.746 C 356.753 239.040,356.744 239.058,357.375 238.915 C 358.580 238.640,358.728 238.250,358.837 235.074 C 358.948 231.846,358.731 231.437,357.375 232.326 M53.291 232.813 C 54.111 232.870,55.382 232.869,56.114 232.811 C 56.846 232.753,56.175 232.706,54.622 232.707 C 53.070 232.708,52.471 232.755,53.291 232.813 M105.716 232.952 C 106.041 233.156,107.182 233.308,108.398 233.308 C 109.614 233.308,110.756 233.156,111.080 232.952 C 111.583 232.635,111.552 232.620,110.797 232.812 C 110.332 232.931,109.252 233.028,108.398 233.028 C 107.544 233.028,106.464 232.931,105.999 232.812 C 105.244 232.620,105.214 232.635,105.716 232.952 M147.354 232.886 C 146.772 233.073,146.747 233.117,147.212 233.136 C 147.523 233.149,147.968 233.037,148.200 232.886 C 148.695 232.567,148.352 232.567,147.354 232.886 M310.939 232.948 C 311.721 233.435,315.182 233.418,315.653 232.925 C 315.960 232.603,315.905 232.580,315.314 232.784 C 314.440 233.085,312.351 233.100,311.221 232.812 C 310.470 232.621,310.438 232.636,310.939 232.948 M151.089 234.016 C 151.089 234.559,151.147 234.781,151.218 234.510 C 151.289 234.238,151.289 233.793,151.218 233.522 C 151.147 233.250,151.089 233.472,151.089 234.016 M264.949 234.907 C 267.903 240.619,276.659 242.314,281.581 238.126 C 282.047 237.730,282.289 237.405,282.119 237.404 C 281.949 237.404,281.567 237.671,281.272 237.998 C 277.614 242.042,267.946 240.157,265.209 234.865 C 264.968 234.398,264.707 234.016,264.629 234.016 C 264.551 234.016,264.695 234.417,264.949 234.907 M300.827 235.670 C 303.849 241.251,312.742 242.083,317.967 237.275 C 319.317 236.032,319.316 236.031,318.973 238.266 C 317.992 244.657,313.960 246.981,305.999 245.742 C 305.016 245.589,305.015 245.590,305.857 245.873 C 312.487 248.103,318.268 244.806,319.291 238.210 C 319.699 235.581,319.483 235.422,317.737 237.074 C 312.700 241.837,305.333 241.061,300.760 235.286 C 300.447 234.891,300.467 235.006,300.827 235.670 M68.717 236.092 C 65.374 238.948,63.777 239.252,52.554 239.165 C 43.715 239.097,41.264 239.262,42.727 239.825 C 43.808 240.242,60.406 239.744,62.668 239.228 C 65.178 238.654,67.462 237.554,69.019 236.171 C 70.455 234.896,70.197 234.828,68.717 236.092 M150.318 238.834 C 149.852 239.132,149.615 239.377,149.792 239.377 C 149.969 239.378,150.414 239.129,150.780 238.824 C 151.620 238.125,151.418 238.129,150.318 238.834 M327.049 242.363 C 326.945 242.777,326.915 243.170,326.981 243.236 C 327.048 243.303,327.187 243.019,327.291 242.605 C 327.395 242.191,327.425 241.798,327.359 241.732 C 327.292 241.665,327.153 241.949,327.049 242.363 M325.895 245.318 C 324.884 247.432,322.889 249.347,320.297 250.691 C 319.283 251.217,318.500 251.692,318.556 251.749 C 318.715 251.907,321.552 250.427,322.653 249.611 C 324.635 248.143,327.118 244.728,326.831 243.866 C 326.776 243.702,326.355 244.355,325.895 245.318 M302.470 244.753 C 303.402 245.198,304.354 245.564,304.587 245.568 C 304.820 245.571,304.125 245.196,303.043 244.735 C 300.564 243.678,300.240 243.688,302.470 244.753 M300.686 249.747 C 300.629 251.411,301.470 252.127,303.895 252.479 C 304.941 252.630,304.926 252.616,303.662 252.247 C 301.443 251.600,300.964 251.153,300.843 249.616 L 300.737 248.271 300.686 249.747 M315.173 252.512 C 314.373 252.717,314.067 252.877,314.467 252.880 C 314.855 252.883,315.681 252.718,316.302 252.513 C 317.743 252.038,317.019 252.037,315.173 252.512 M306.281 252.955 C 307.502 253.161,314.058 253.266,313.479 253.071 C 313.324 253.019,311.355 252.923,309.104 252.858 C 306.740 252.791,305.547 252.832,306.281 252.955 " stroke="none" fill="#ffffff" fill-rule="evenodd"/><path id="path4" d="M183.271 69.612 L 167.069 85.873 167.705 86.550 C 168.511 87.407,168.715 87.418,168.162 86.573 C 167.740 85.930,168.007 85.644,183.793 69.777 C 192.626 60.898,199.962 53.634,200.094 53.634 C 200.330 53.634,209.035 62.272,225.117 78.467 C 229.615 82.997,233.338 86.576,233.390 86.421 C 233.442 86.266,232.883 85.590,232.149 84.919 C 231.415 84.247,230.462 83.317,230.032 82.851 C 224.577 76.945,200.656 53.352,200.122 53.352 C 199.640 53.352,195.309 57.531,183.271 69.612 M189.360 84.567 C 183.568 90.402,178.727 95.356,178.603 95.577 C 178.479 95.797,178.114 95.977,177.792 95.977 C 177.300 95.977,177.264 96.046,177.563 96.407 C 177.868 96.774,179.518 95.217,188.976 85.640 L 200.034 74.445 201.428 75.695 C 204.127 78.114,222.442 96.518,222.442 96.811 C 222.442 96.973,222.569 97.107,222.724 97.107 C 222.879 97.107,223.006 96.959,223.006 96.780 C 223.006 96.383,200.570 73.959,200.173 73.959 C 200.019 73.959,195.153 78.733,189.360 84.567 M235.014 88.319 C 235.737 89.191,256.041 109.493,260.341 113.641 L 263.659 116.844 253.402 127.168 C 245.273 135.351,243.039 137.452,242.635 137.297 C 242.268 137.156,242.164 137.213,242.265 137.499 C 242.600 138.449,243.825 137.503,248.739 132.501 C 255.578 125.538,263.622 117.596,263.955 117.478 C 264.639 117.236,264.066 116.275,262.456 114.965 C 261.486 114.175,258.151 110.968,255.046 107.838 C 251.941 104.708,248.783 101.553,248.028 100.827 C 247.273 100.100,245.812 98.637,244.782 97.575 C 243.072 95.813,241.435 94.220,239.805 92.731 C 239.465 92.421,238.124 91.150,236.824 89.908 C 235.524 88.666,234.710 87.951,235.014 88.319 M157.092 96.136 C 156.482 96.592,150.612 102.401,143.026 110.055 C 140.412 112.692,137.842 115.145,137.314 115.505 C 136.785 115.866,136.297 116.305,136.229 116.482 C 136.133 116.729,148.080 128.846,155.826 136.357 C 156.394 136.907,156.990 137.592,157.150 137.879 C 157.331 138.203,157.577 138.316,157.800 138.178 C 158.047 138.026,154.842 134.673,147.534 127.437 C 135.825 115.844,136.498 116.679,137.968 115.571 C 139.025 114.774,141.561 112.261,150.600 103.055 C 153.239 100.367,155.942 97.719,156.607 97.172 L 157.815 96.178 158.583 96.853 C 159.302 97.485,159.298 97.470,158.522 96.612 C 158.066 96.108,157.685 95.699,157.675 95.704 C 157.665 95.709,157.403 95.903,157.092 96.136 M164.573 102.709 C 164.573 102.840,164.827 103.177,165.138 103.458 C 165.448 103.739,165.702 103.886,165.702 103.784 C 165.702 103.682,165.448 103.345,165.138 103.035 C 164.827 102.724,164.573 102.577,164.573 102.709 M166.952 105.352 L 167.728 106.400 162.622 111.509 C 156.812 117.322,156.906 117.107,159.280 119.199 C 160.251 120.054,162.561 122.286,164.414 124.158 C 166.267 126.030,167.869 127.509,167.973 127.445 C 168.183 127.315,163.980 122.984,160.400 119.641 C 158.038 117.436,157.602 116.578,158.577 116.056 C 159.134 115.758,167.677 107.201,168.008 106.609 C 168.146 106.362,167.864 105.893,167.198 105.267 L 166.176 104.305 166.952 105.352 M232.040 106.037 C 232.040 106.174,234.390 108.634,237.263 111.504 C 240.135 114.373,242.453 116.809,242.414 116.916 C 242.375 117.024,240.088 119.395,237.332 122.187 C 233.784 125.780,232.371 127.393,232.493 127.710 C 232.732 128.335,233.169 128.270,233.169 127.610 C 233.169 127.279,235.125 125.082,238.109 122.061 C 240.826 119.310,243.049 116.974,243.049 116.869 C 243.049 116.684,233.455 106.946,232.513 106.176 C 232.253 105.963,232.040 105.900,232.040 106.037 M171.630 131.440 C 171.630 131.595,172.011 132.087,172.477 132.534 C 172.943 132.980,173.324 133.218,173.324 133.063 C 173.324 132.907,172.943 132.415,172.477 131.969 C 172.011 131.523,171.630 131.285,171.630 131.440 M178.445 138.109 C 179.116 138.924,182.299 142.195,185.517 145.378 C 188.735 148.560,193.328 153.102,195.724 155.469 C 198.119 157.837,200.218 159.774,200.388 159.774 C 200.558 159.774,204.986 155.436,210.228 150.134 C 220.116 140.135,221.478 138.794,222.436 138.123 C 223.220 137.574,223.169 137.085,222.371 137.508 C 222.022 137.693,216.957 142.668,211.117 148.563 L 200.497 159.281 199.684 158.676 C 199.237 158.343,194.049 153.246,188.157 147.349 C 182.264 141.452,177.393 136.627,177.333 136.627 C 177.273 136.627,177.773 137.294,178.445 138.109 M230.932 145.827 C 231.308 146.229,231.870 146.690,232.181 146.850 C 232.521 147.026,232.360 146.736,231.772 146.119 C 231.237 145.556,230.675 145.095,230.524 145.095 C 230.372 145.095,230.555 145.425,230.932 145.827 M166.869 147.270 C 167.067 147.918,199.935 180.690,200.304 180.606 C 201.102 180.425,233.208 148.146,233.036 147.698 C 232.906 147.357,232.757 147.451,232.383 148.110 C 232.116 148.579,229.929 150.858,227.523 153.175 C 225.116 155.492,218.040 162.529,211.797 168.813 C 200.674 180.011,200.433 180.231,199.800 179.812 C 199.444 179.576,194.199 174.368,188.144 168.238 C 175.428 155.364,166.719 146.782,166.869 147.270 " stroke="none" fill="#ffffff" fill-rule="evenodd"/></g></svg>