<?xml version="1.0" encoding="UTF-8"?>
<!DOCTYPE svg PUBLIC "-//W3C//DTD SVG 1.1//EN" "http://www.w3.org/Graphics/SVG/1.1/DTD/svg11.dtd">
<svg xmlns="http://www.w3.org/2000/svg" version="1.1" width="576px" height="128px" style="shape-rendering:geometricPrecision; text-rendering:geometricPrecision; image-rendering:optimizeQuality; fill-rule:evenodd; clip-rule:evenodd" xmlns:xlink="http://www.w3.org/1999/xlink">
<g><path style="opacity:0.937" fill="#fefffe" d="M 35.5,-0.5 C 38.1667,-0.5 40.8333,-0.5 43.5,-0.5C 55.6884,6.18176 67.5218,13.5151 79,21.5C 80.6957,27.4433 80.8624,33.4433 79.5,39.5C 75.0908,42.5665 70.4241,45.2332 65.5,47.5C 64.9151,41.4206 64.0817,35.4206 63,29.5C 56.0791,24.9547 48.9125,20.788 41.5,17C 40.1667,16.3333 38.8333,16.3333 37.5,17C 30.8333,20.6667 24.1667,24.3333 17.5,28C 16.2986,28.9025 15.4652,30.0692 15,31.5C 14.3333,40.1667 14.3333,48.8333 15,57.5C 21.6982,63.4413 29.1982,68.2746 37.5,72C 39.1667,72.6667 40.8333,72.6667 42.5,72C 60.9972,61.5858 79.3306,50.9191 97.5,40C 101.555,37.6597 105.889,36.993 110.5,38C 122.083,44.7074 133.583,51.5407 145,58.5C 146.634,73.7406 146.968,89.0739 146,104.5C 145.535,105.931 144.701,107.097 143.5,108C 132.107,114.022 121.107,120.522 110.5,127.5C 107.5,127.5 104.5,127.5 101.5,127.5C 90.147,120.4 78.647,113.4 67,106.5C 65.4185,100.277 65.0852,93.9441 66,87.5C 70.4175,84.7074 74.9175,82.0407 79.5,79.5C 79.9708,85.644 80.9708,91.644 82.5,97.5C 87.3664,100.864 92.3664,104.031 97.5,107C 100.602,109.036 103.935,110.036 107.5,110C 115.839,106.261 123.339,101.428 130,95.5C 130.667,86.5 130.667,77.5 130,68.5C 123.366,63.209 116.199,58.709 108.5,55C 106.833,54.3333 105.167,54.3333 103.5,55C 85.2421,64.9336 67.2421,75.267 49.5,86C 42.3129,90.7871 35.3129,90.4538 28.5,85C 19.8333,80 11.1667,75 2.5,70C 1.36362,68.8549 0.363622,67.6883 -0.5,66.5C -0.5,51.8333 -0.5,37.1667 -0.5,22.5C 0.977392,20.193 2.97739,18.3597 5.5,17C 15.727,11.3924 25.727,5.55908 35.5,-0.5 Z"/></g>
<g><path style="opacity:0.916" fill="#fefffe" d="M 306.5,-0.5 C 312.167,-0.5 317.833,-0.5 323.5,-0.5C 323.5,29.5 323.5,59.5 323.5,89.5C 317.907,89.8066 312.407,89.4732 307,88.5C 306.5,58.8352 306.333,29.1685 306.5,-0.5 Z"/></g>
<g><path style="opacity:0.953" fill="#fefffe" d="M 205.5,36.5 C 226.891,35.7249 237.058,46.0583 236,67.5C 231.4,86.2289 219.567,93.3956 200.5,89C 198.254,87.9605 196.087,86.7938 194,85.5C 193.5,94.4938 193.334,103.494 193.5,112.5C 188.167,112.5 182.833,112.5 177.5,112.5C 177.5,87.5 177.5,62.5 177.5,37.5C 182.167,37.5 186.833,37.5 191.5,37.5C 191.383,39.4835 192.05,41.1502 193.5,42.5C 197.324,39.9214 201.324,37.9214 205.5,36.5 Z M 203.5,50.5 C 217.097,51.6985 221.597,58.6985 217,71.5C 210.471,78.0592 203.471,78.7258 196,73.5C 192.712,67.1025 192.712,60.7692 196,54.5C 198.514,52.9958 201.014,51.6624 203.5,50.5 Z"/></g>
<g><path style="opacity:0.938" fill="#fefffe" d="M 264.5,36.5 C 280.205,34.7614 291.038,41.0947 297,55.5C 299.885,76.9476 290.552,88.6142 269,90.5C 251.535,89.8672 242.035,80.8672 240.5,63.5C 242.224,48.7828 250.224,39.7828 264.5,36.5 Z M 265.5,50.5 C 278.404,50.5783 283.237,56.9116 280,69.5C 276.96,75.6026 272.126,77.7693 265.5,76C 257.121,69.9706 255.621,62.4706 261,53.5C 262.652,52.6006 264.152,51.6006 265.5,50.5 Z"/></g>
<g><path style="opacity:0.933" fill="#fefffe" d="M 408.5,36.5 C 413.58,36.2497 418.58,36.7497 423.5,38C 426.548,38.6064 429.048,40.1064 431,42.5C 431.374,41.5838 431.874,40.7504 432.5,40C 437.823,39.5006 443.156,39.334 448.5,39.5C 448.667,56.17 448.5,72.8367 448,89.5C 446.453,102.384 439.286,110.217 426.5,113C 413.537,115.897 402.204,112.897 392.5,104C 395.676,99.9935 399.009,96.1602 402.5,92.5C 411.497,101.207 420.664,101.54 430,93.5C 431.368,90.2617 431.701,86.9283 431,83.5C 420.223,92.1934 409.056,92.6934 397.5,85C 384.174,70.7074 384.174,56.3741 397.5,42C 400.99,39.588 404.657,37.7547 408.5,36.5 Z M 413.5,50.5 C 427.876,49.0414 433.71,55.3747 431,69.5C 426.748,75.5876 420.915,77.7543 413.5,76C 405.531,72.1007 403.031,65.934 406,57.5C 407.742,54.2543 410.242,51.921 413.5,50.5 Z"/></g>
<g><path style="opacity:0.936" fill="#fefffe" d="M 478.5,36.5 C 499.304,33.995 510.97,42.995 513.5,63.5C 512.019,80.8115 502.519,89.8115 485,90.5C 467.484,89.8148 457.984,80.8148 456.5,63.5C 457.28,49.062 464.613,40.062 478.5,36.5 Z M 481.5,50.5 C 488.885,49.6002 493.718,52.6002 496,59.5C 497.293,74.0888 491.127,78.9222 477.5,74C 472.89,67.8361 472.39,61.3361 476,54.5C 477.812,53.0229 479.645,51.6896 481.5,50.5 Z"/></g>
<g><path style="opacity:0.955" fill="#fefffe" d="M 551.5,36.5 C 557.563,35.8377 563.23,37.0044 568.5,40C 570.617,41.7309 572.117,43.8976 573,46.5C 573.5,60.8295 573.667,75.1628 573.5,89.5C 568.167,89.5 562.833,89.5 557.5,89.5C 557.667,78.495 557.5,67.495 557,56.5C 552.798,48.9173 547.798,48.5839 542,55.5C 541.138,57.087 540.471,58.7536 540,60.5C 538.609,70.1003 538.109,79.767 538.5,89.5C 533.167,89.5 527.833,89.5 522.5,89.5C 522.5,72.8333 522.5,56.1667 522.5,39.5C 527.5,39.5 532.5,39.5 537.5,39.5C 537.231,41.4286 537.731,43.0953 539,44.5C 542.579,40.724 546.746,38.0573 551.5,36.5 Z"/></g>
<g><path style="opacity:0.939" fill="#fefffe" d="M 329.5,39.5 C 335.868,39.1703 342.202,39.5037 348.5,40.5C 351.969,49.4369 355.969,58.1035 360.5,66.5C 364.495,57.8421 368.495,49.1754 372.5,40.5C 377.5,39.1667 382.5,39.1667 387.5,40.5C 376.972,64.0839 366.639,87.7506 356.5,111.5C 350.863,112.663 345.196,112.83 339.5,112C 343.765,103.468 347.765,94.8018 351.5,86C 343.746,70.6598 336.412,55.1598 329.5,39.5 Z"/></g>
</svg>
